<mxfile host="app.diagrams.net" modified="2021-09-11T09:02:38.855Z" agent="5.0 (Macintosh; Intel Mac OS X 10_15_7) AppleWebKit/537.36 (KHTML, like Gecko) Chrome/93.0.4577.63 Safari/537.36" etag="5uHMO5Ii5DZUl1WJowPn" version="15.1.4" type="github" pages="8">
  <diagram id="Y9zuS4-PnhuHLRxPQKxk" name="queue">
    <mxGraphModel dx="916" dy="1640" grid="1" gridSize="10" guides="1" tooltips="1" connect="1" arrows="1" fold="1" page="1" pageScale="1" pageWidth="850" pageHeight="1100" background="#B0E3E6" math="0" shadow="0">
      <root>
        <mxCell id="0" />
        <mxCell id="1" parent="0" />
        <mxCell id="F6SsVsoP7pMl3VLv_bFE-13" value="a" style="rounded=0;whiteSpace=wrap;html=1;fontSize=18;fillColor=#F08E81;strokeColor=#FFFFFF;fontColor=#1A1A1A;" parent="1" vertex="1">
          <mxGeometry x="210" y="90" width="120" height="60" as="geometry" />
        </mxCell>
        <mxCell id="F6SsVsoP7pMl3VLv_bFE-14" value="b" style="rounded=0;whiteSpace=wrap;html=1;fontSize=18;fillColor=#F08E81;strokeColor=#FFFFFF;fontColor=#1A1A1A;" parent="1" vertex="1">
          <mxGeometry x="210" y="150" width="120" height="60" as="geometry" />
        </mxCell>
        <mxCell id="F6SsVsoP7pMl3VLv_bFE-15" value="c" style="rounded=0;whiteSpace=wrap;html=1;fontSize=18;fillColor=#F08E81;strokeColor=#FFFFFF;fontColor=#1A1A1A;" parent="1" vertex="1">
          <mxGeometry x="210" y="210" width="120" height="60" as="geometry" />
        </mxCell>
        <mxCell id="F6SsVsoP7pMl3VLv_bFE-16" value="d" style="rounded=0;whiteSpace=wrap;html=1;fontSize=18;fillColor=#F08E81;strokeColor=#FFFFFF;fontColor=#1A1A1A;" parent="1" vertex="1">
          <mxGeometry x="210" y="270" width="120" height="60" as="geometry" />
        </mxCell>
        <mxCell id="F6SsVsoP7pMl3VLv_bFE-17" value="e" style="rounded=0;whiteSpace=wrap;html=1;fontSize=18;fillColor=#F08E81;strokeColor=#FFFFFF;fontColor=#1A1A1A;" parent="1" vertex="1">
          <mxGeometry x="210" y="330" width="120" height="60" as="geometry" />
        </mxCell>
        <mxCell id="F6SsVsoP7pMl3VLv_bFE-18" style="edgeStyle=orthogonalEdgeStyle;rounded=0;orthogonalLoop=1;jettySize=auto;html=1;exitX=0.5;exitY=1;exitDx=0;exitDy=0;fontSize=18;strokeColor=#182E3E;fontColor=#1A1A1A;labelBackgroundColor=#B0E3E6;" parent="1" source="F6SsVsoP7pMl3VLv_bFE-13" target="F6SsVsoP7pMl3VLv_bFE-13" edge="1">
          <mxGeometry relative="1" as="geometry" />
        </mxCell>
        <mxCell id="F6SsVsoP7pMl3VLv_bFE-19" style="edgeStyle=orthogonalEdgeStyle;rounded=0;orthogonalLoop=1;jettySize=auto;html=1;exitX=0.5;exitY=1;exitDx=0;exitDy=0;fontSize=18;strokeColor=#182E3E;fontColor=#1A1A1A;labelBackgroundColor=#B0E3E6;" parent="1" edge="1">
          <mxGeometry relative="1" as="geometry">
            <mxPoint x="270" y="450" as="sourcePoint" />
            <mxPoint x="270" y="450" as="targetPoint" />
          </mxGeometry>
        </mxCell>
        <mxCell id="F6SsVsoP7pMl3VLv_bFE-20" value="" style="html=1;shadow=0;dashed=0;align=center;verticalAlign=middle;shape=mxgraph.arrows2.jumpInArrow;dy=15;dx=38;arrowHead=55;rotation=-80;fillColor=#eeeeee;strokeColor=#36393d;" parent="1" vertex="1">
          <mxGeometry x="230.94" y="399.21" width="90" height="90" as="geometry" />
        </mxCell>
        <mxCell id="F6SsVsoP7pMl3VLv_bFE-21" value="" style="html=1;shadow=0;dashed=0;align=center;verticalAlign=middle;shape=mxgraph.arrows2.jumpInArrow;dy=15;dx=38;arrowHead=55;rotation=-30;fillColor=#eeeeee;strokeColor=#36393d;" parent="1" vertex="1">
          <mxGeometry x="243.84" y="-15.670000000000002" width="80" height="90" as="geometry" />
        </mxCell>
        <mxCell id="F6SsVsoP7pMl3VLv_bFE-22" value="&lt;font style=&quot;font-size: 18px&quot;&gt;队头&lt;/font&gt;" style="ellipse;shape=cloud;whiteSpace=wrap;html=1;fillColor=#f5f5f5;strokeColor=#666666;fontColor=#333333;" parent="1" vertex="1">
          <mxGeometry x="70" y="80" width="120" height="80" as="geometry" />
        </mxCell>
        <mxCell id="F6SsVsoP7pMl3VLv_bFE-23" value="&lt;font style=&quot;font-size: 18px&quot;&gt;队尾&lt;/font&gt;" style="ellipse;shape=cloud;whiteSpace=wrap;html=1;fillColor=#f5f5f5;strokeColor=#666666;fontColor=#333333;" parent="1" vertex="1">
          <mxGeometry x="70" y="319.21000000000004" width="120" height="80" as="geometry" />
        </mxCell>
        <mxCell id="F6SsVsoP7pMl3VLv_bFE-24" value="&lt;font style=&quot;font-size: 18px&quot;&gt;队列&lt;/font&gt;" style="ellipse;shape=cloud;whiteSpace=wrap;html=1;fillColor=#f5f5f5;strokeColor=#666666;fontColor=#333333;" parent="1" vertex="1">
          <mxGeometry x="390" y="190" width="120" height="80" as="geometry" />
        </mxCell>
      </root>
    </mxGraphModel>
  </diagram>
  <diagram id="rh4EBym4hJ1Ah6Iu2wRs" name="stack">
    <mxGraphModel dx="916" dy="1640" grid="1" gridSize="10" guides="1" tooltips="1" connect="1" arrows="1" fold="1" page="1" pageScale="1" pageWidth="850" pageHeight="1100" background="#B0E3E6" math="0" shadow="0">
      <root>
        <mxCell id="mIGE5tgWxmr13v7Q1wLh-0" />
        <mxCell id="mIGE5tgWxmr13v7Q1wLh-1" parent="mIGE5tgWxmr13v7Q1wLh-0" />
        <mxCell id="mIGE5tgWxmr13v7Q1wLh-2" value="a" style="rounded=0;whiteSpace=wrap;html=1;fontSize=18;fillColor=#F08E81;strokeColor=#FFFFFF;fontColor=#1A1A1A;" parent="mIGE5tgWxmr13v7Q1wLh-1" vertex="1">
          <mxGeometry x="200" y="80" width="120" height="60" as="geometry" />
        </mxCell>
        <mxCell id="mIGE5tgWxmr13v7Q1wLh-3" value="b" style="rounded=0;whiteSpace=wrap;html=1;fontSize=18;fillColor=#F08E81;strokeColor=#FFFFFF;fontColor=#1A1A1A;" parent="mIGE5tgWxmr13v7Q1wLh-1" vertex="1">
          <mxGeometry x="200" y="140" width="120" height="60" as="geometry" />
        </mxCell>
        <mxCell id="mIGE5tgWxmr13v7Q1wLh-4" value="c" style="rounded=0;whiteSpace=wrap;html=1;fontSize=18;fillColor=#F08E81;strokeColor=#FFFFFF;fontColor=#1A1A1A;" parent="mIGE5tgWxmr13v7Q1wLh-1" vertex="1">
          <mxGeometry x="200" y="200" width="120" height="60" as="geometry" />
        </mxCell>
        <mxCell id="mIGE5tgWxmr13v7Q1wLh-5" value="d" style="rounded=0;whiteSpace=wrap;html=1;fontSize=18;fillColor=#F08E81;strokeColor=#FFFFFF;fontColor=#1A1A1A;" parent="mIGE5tgWxmr13v7Q1wLh-1" vertex="1">
          <mxGeometry x="200" y="260" width="120" height="60" as="geometry" />
        </mxCell>
        <mxCell id="mIGE5tgWxmr13v7Q1wLh-6" value="e" style="rounded=0;whiteSpace=wrap;html=1;fontSize=18;fillColor=#F08E81;strokeColor=#FFFFFF;fontColor=#1A1A1A;" parent="mIGE5tgWxmr13v7Q1wLh-1" vertex="1">
          <mxGeometry x="200" y="320" width="120" height="60" as="geometry" />
        </mxCell>
        <mxCell id="mIGE5tgWxmr13v7Q1wLh-7" style="edgeStyle=orthogonalEdgeStyle;rounded=0;orthogonalLoop=1;jettySize=auto;html=1;exitX=0.5;exitY=1;exitDx=0;exitDy=0;fontSize=18;strokeColor=#182E3E;fontColor=#1A1A1A;labelBackgroundColor=#B0E3E6;" parent="mIGE5tgWxmr13v7Q1wLh-1" source="mIGE5tgWxmr13v7Q1wLh-2" target="mIGE5tgWxmr13v7Q1wLh-2" edge="1">
          <mxGeometry relative="1" as="geometry" />
        </mxCell>
        <mxCell id="mIGE5tgWxmr13v7Q1wLh-8" style="edgeStyle=orthogonalEdgeStyle;rounded=0;orthogonalLoop=1;jettySize=auto;html=1;exitX=0.5;exitY=1;exitDx=0;exitDy=0;fontSize=18;strokeColor=#182E3E;fontColor=#1A1A1A;labelBackgroundColor=#B0E3E6;" parent="mIGE5tgWxmr13v7Q1wLh-1" edge="1">
          <mxGeometry relative="1" as="geometry">
            <mxPoint x="260" y="440" as="sourcePoint" />
            <mxPoint x="260" y="440" as="targetPoint" />
          </mxGeometry>
        </mxCell>
        <mxCell id="mIGE5tgWxmr13v7Q1wLh-9" value="" style="html=1;shadow=0;dashed=0;align=center;verticalAlign=middle;shape=mxgraph.arrows2.jumpInArrow;dy=15;dx=38;arrowHead=55;rotation=101;fillColor=#eeeeee;strokeColor=#36393d;" parent="mIGE5tgWxmr13v7Q1wLh-1" vertex="1">
          <mxGeometry x="162" y="-20" width="90" height="90" as="geometry" />
        </mxCell>
        <mxCell id="mIGE5tgWxmr13v7Q1wLh-10" value="" style="html=1;shadow=0;dashed=0;align=center;verticalAlign=middle;shape=mxgraph.arrows2.jumpInArrow;dy=15;dx=38;arrowHead=55;rotation=-30;fillColor=#eeeeee;strokeColor=#36393d;" parent="mIGE5tgWxmr13v7Q1wLh-1" vertex="1">
          <mxGeometry x="270" y="-36" width="80" height="90" as="geometry" />
        </mxCell>
        <mxCell id="mIGE5tgWxmr13v7Q1wLh-11" value="&lt;font style=&quot;font-size: 18px&quot;&gt;栈头&lt;/font&gt;" style="ellipse;shape=cloud;whiteSpace=wrap;html=1;fillColor=#f5f5f5;strokeColor=#666666;fontColor=#333333;" parent="mIGE5tgWxmr13v7Q1wLh-1" vertex="1">
          <mxGeometry x="60" y="70" width="120" height="80" as="geometry" />
        </mxCell>
        <mxCell id="mIGE5tgWxmr13v7Q1wLh-12" value="&lt;font style=&quot;font-size: 18px&quot;&gt;栈底&lt;/font&gt;" style="ellipse;shape=cloud;whiteSpace=wrap;html=1;fillColor=#f5f5f5;strokeColor=#666666;fontColor=#333333;" parent="mIGE5tgWxmr13v7Q1wLh-1" vertex="1">
          <mxGeometry x="342" y="70.00000000000003" width="120" height="80" as="geometry" />
        </mxCell>
        <mxCell id="mIGE5tgWxmr13v7Q1wLh-13" value="&lt;font style=&quot;font-size: 18px&quot;&gt;栈&lt;/font&gt;" style="ellipse;shape=cloud;whiteSpace=wrap;html=1;fillColor=#f5f5f5;strokeColor=#666666;fontColor=#333333;" parent="mIGE5tgWxmr13v7Q1wLh-1" vertex="1">
          <mxGeometry x="200" y="396" width="120" height="80" as="geometry" />
        </mxCell>
      </root>
    </mxGraphModel>
  </diagram>
  <diagram id="Ea38NxEhxgveRSimkK6N" name="queue1">
    <mxGraphModel dx="916" dy="1640" grid="1" gridSize="10" guides="1" tooltips="1" connect="1" arrows="1" fold="1" page="1" pageScale="1" pageWidth="850" pageHeight="1100" background="#B0E3E6" math="0" shadow="0">
      <root>
        <mxCell id="phd4OfvJBXuqZRYAD3vZ-0" />
        <mxCell id="phd4OfvJBXuqZRYAD3vZ-1" parent="phd4OfvJBXuqZRYAD3vZ-0" />
        <mxCell id="phd4OfvJBXuqZRYAD3vZ-2" value="" style="edgeStyle=orthogonalEdgeStyle;rounded=0;orthogonalLoop=1;jettySize=auto;html=1;" parent="phd4OfvJBXuqZRYAD3vZ-1" source="phd4OfvJBXuqZRYAD3vZ-3" target="phd4OfvJBXuqZRYAD3vZ-12" edge="1">
          <mxGeometry relative="1" as="geometry" />
        </mxCell>
        <mxCell id="phd4OfvJBXuqZRYAD3vZ-3" value="a" style="rounded=0;whiteSpace=wrap;html=1;fontSize=18;fillColor=#F08E81;strokeColor=#FFFFFF;fontColor=#1A1A1A;" parent="phd4OfvJBXuqZRYAD3vZ-1" vertex="1">
          <mxGeometry x="214" y="80" width="88" height="60" as="geometry" />
        </mxCell>
        <mxCell id="phd4OfvJBXuqZRYAD3vZ-4" style="edgeStyle=orthogonalEdgeStyle;rounded=0;orthogonalLoop=1;jettySize=auto;html=1;exitX=0.5;exitY=1;exitDx=0;exitDy=0;fontSize=18;strokeColor=#182E3E;fontColor=#1A1A1A;labelBackgroundColor=#B0E3E6;" parent="phd4OfvJBXuqZRYAD3vZ-1" source="phd4OfvJBXuqZRYAD3vZ-3" target="phd4OfvJBXuqZRYAD3vZ-3" edge="1">
          <mxGeometry relative="1" as="geometry" />
        </mxCell>
        <mxCell id="phd4OfvJBXuqZRYAD3vZ-5" value="&lt;font style=&quot;font-size: 18px&quot;&gt;队头&lt;/font&gt;" style="ellipse;shape=cloud;whiteSpace=wrap;html=1;fillColor=#f5f5f5;strokeColor=#666666;fontColor=#333333;" parent="phd4OfvJBXuqZRYAD3vZ-1" vertex="1">
          <mxGeometry x="198" y="180" width="120" height="80" as="geometry" />
        </mxCell>
        <mxCell id="phd4OfvJBXuqZRYAD3vZ-6" value="&lt;font style=&quot;font-size: 18px&quot;&gt;队尾&lt;/font&gt;" style="ellipse;shape=cloud;whiteSpace=wrap;html=1;fillColor=#f5f5f5;strokeColor=#666666;fontColor=#333333;" parent="phd4OfvJBXuqZRYAD3vZ-1" vertex="1">
          <mxGeometry x="550" y="180.00000000000003" width="120" height="80" as="geometry" />
        </mxCell>
        <mxCell id="phd4OfvJBXuqZRYAD3vZ-7" value="&lt;font style=&quot;font-size: 18px&quot;&gt;队列&lt;/font&gt;" style="ellipse;shape=cloud;whiteSpace=wrap;html=1;fillColor=#f5f5f5;strokeColor=#666666;fontColor=#333333;" parent="phd4OfvJBXuqZRYAD3vZ-1" vertex="1">
          <mxGeometry x="50" y="70" width="120" height="80" as="geometry" />
        </mxCell>
        <mxCell id="phd4OfvJBXuqZRYAD3vZ-8" value="b" style="rounded=0;whiteSpace=wrap;html=1;fontSize=18;fillColor=#F08E81;strokeColor=#FFFFFF;fontColor=#1A1A1A;" parent="phd4OfvJBXuqZRYAD3vZ-1" vertex="1">
          <mxGeometry x="302" y="80" width="88" height="60" as="geometry" />
        </mxCell>
        <mxCell id="phd4OfvJBXuqZRYAD3vZ-9" value="c" style="rounded=0;whiteSpace=wrap;html=1;fontSize=18;fillColor=#F08E81;strokeColor=#FFFFFF;fontColor=#1A1A1A;" parent="phd4OfvJBXuqZRYAD3vZ-1" vertex="1">
          <mxGeometry x="390" y="80" width="88" height="60" as="geometry" />
        </mxCell>
        <mxCell id="phd4OfvJBXuqZRYAD3vZ-10" value="d" style="rounded=0;whiteSpace=wrap;html=1;fontSize=18;fillColor=#F08E81;strokeColor=#FFFFFF;fontColor=#1A1A1A;" parent="phd4OfvJBXuqZRYAD3vZ-1" vertex="1">
          <mxGeometry x="478" y="80" width="88" height="60" as="geometry" />
        </mxCell>
        <mxCell id="phd4OfvJBXuqZRYAD3vZ-11" value="f" style="rounded=0;whiteSpace=wrap;html=1;fontSize=18;fillColor=#F08E81;strokeColor=#FFFFFF;fontColor=#1A1A1A;" parent="phd4OfvJBXuqZRYAD3vZ-1" vertex="1">
          <mxGeometry x="566" y="80" width="88" height="60" as="geometry" />
        </mxCell>
        <mxCell id="phd4OfvJBXuqZRYAD3vZ-12" value="&lt;span style=&quot;font-size: 18px&quot;&gt;front&lt;/span&gt;" style="ellipse;shape=cloud;whiteSpace=wrap;html=1;fillColor=#f5f5f5;strokeColor=#666666;fontColor=#333333;" parent="phd4OfvJBXuqZRYAD3vZ-1" vertex="1">
          <mxGeometry x="198" y="-54" width="120" height="80" as="geometry" />
        </mxCell>
        <mxCell id="phd4OfvJBXuqZRYAD3vZ-13" value="&lt;font style=&quot;font-size: 18px&quot;&gt;rear&lt;/font&gt;" style="ellipse;shape=cloud;whiteSpace=wrap;html=1;fillColor=#f5f5f5;strokeColor=#666666;fontColor=#333333;" parent="phd4OfvJBXuqZRYAD3vZ-1" vertex="1">
          <mxGeometry x="638" y="-53.99999999999997" width="120" height="80" as="geometry" />
        </mxCell>
        <mxCell id="phd4OfvJBXuqZRYAD3vZ-14" value="" style="edgeStyle=orthogonalEdgeStyle;rounded=0;orthogonalLoop=1;jettySize=auto;html=1;" parent="phd4OfvJBXuqZRYAD3vZ-1" source="phd4OfvJBXuqZRYAD3vZ-15" target="phd4OfvJBXuqZRYAD3vZ-13" edge="1">
          <mxGeometry relative="1" as="geometry" />
        </mxCell>
        <mxCell id="phd4OfvJBXuqZRYAD3vZ-15" value="Null" style="rounded=0;whiteSpace=wrap;html=1;fontSize=18;fillColor=#F08E81;strokeColor=#FFFFFF;fontColor=#1A1A1A;" parent="phd4OfvJBXuqZRYAD3vZ-1" vertex="1">
          <mxGeometry x="654" y="80" width="88" height="60" as="geometry" />
        </mxCell>
      </root>
    </mxGraphModel>
  </diagram>
  <diagram id="vUdJI8kuGo0IYl_8pIdd" name="queue2">
    <mxGraphModel dx="916" dy="1640" grid="1" gridSize="10" guides="1" tooltips="1" connect="1" arrows="1" fold="1" page="1" pageScale="1" pageWidth="850" pageHeight="1100" background="#B0E3E6" math="0" shadow="0">
      <root>
        <mxCell id="9EPrf9KzIyddG6WuSStG-0" />
        <mxCell id="9EPrf9KzIyddG6WuSStG-1" parent="9EPrf9KzIyddG6WuSStG-0" />
        <mxCell id="9EPrf9KzIyddG6WuSStG-2" value="" style="edgeStyle=orthogonalEdgeStyle;rounded=0;orthogonalLoop=1;jettySize=auto;html=1;" parent="9EPrf9KzIyddG6WuSStG-1" source="9EPrf9KzIyddG6WuSStG-3" target="9EPrf9KzIyddG6WuSStG-13" edge="1">
          <mxGeometry relative="1" as="geometry" />
        </mxCell>
        <mxCell id="9EPrf9KzIyddG6WuSStG-3" value="a" style="rounded=0;whiteSpace=wrap;html=1;fontSize=18;fillColor=#F08E81;strokeColor=#FFFFFF;fontColor=#1A1A1A;" parent="9EPrf9KzIyddG6WuSStG-1" vertex="1">
          <mxGeometry x="214" y="80" width="88" height="60" as="geometry" />
        </mxCell>
        <mxCell id="9EPrf9KzIyddG6WuSStG-4" style="edgeStyle=orthogonalEdgeStyle;rounded=0;orthogonalLoop=1;jettySize=auto;html=1;exitX=0.5;exitY=1;exitDx=0;exitDy=0;fontSize=18;strokeColor=#182E3E;fontColor=#1A1A1A;labelBackgroundColor=#B0E3E6;" parent="9EPrf9KzIyddG6WuSStG-1" source="9EPrf9KzIyddG6WuSStG-3" target="9EPrf9KzIyddG6WuSStG-3" edge="1">
          <mxGeometry relative="1" as="geometry" />
        </mxCell>
        <mxCell id="9EPrf9KzIyddG6WuSStG-5" style="edgeStyle=orthogonalEdgeStyle;rounded=0;orthogonalLoop=1;jettySize=auto;html=1;exitX=0.5;exitY=1;exitDx=0;exitDy=0;fontSize=18;strokeColor=#182E3E;fontColor=#1A1A1A;labelBackgroundColor=#B0E3E6;" parent="9EPrf9KzIyddG6WuSStG-1" edge="1">
          <mxGeometry relative="1" as="geometry">
            <mxPoint x="260" y="440" as="sourcePoint" />
            <mxPoint x="260" y="440" as="targetPoint" />
          </mxGeometry>
        </mxCell>
        <mxCell id="9EPrf9KzIyddG6WuSStG-6" value="&lt;font style=&quot;font-size: 18px&quot;&gt;队头&lt;/font&gt;" style="ellipse;shape=cloud;whiteSpace=wrap;html=1;fillColor=#f5f5f5;strokeColor=#666666;fontColor=#333333;" parent="9EPrf9KzIyddG6WuSStG-1" vertex="1">
          <mxGeometry x="198" y="180" width="120" height="80" as="geometry" />
        </mxCell>
        <mxCell id="9EPrf9KzIyddG6WuSStG-7" value="&lt;font style=&quot;font-size: 18px&quot;&gt;队尾&lt;/font&gt;" style="ellipse;shape=cloud;whiteSpace=wrap;html=1;fillColor=#f5f5f5;strokeColor=#666666;fontColor=#333333;" parent="9EPrf9KzIyddG6WuSStG-1" vertex="1">
          <mxGeometry x="550" y="180.00000000000003" width="120" height="80" as="geometry" />
        </mxCell>
        <mxCell id="9EPrf9KzIyddG6WuSStG-8" value="&lt;font style=&quot;font-size: 18px&quot;&gt;队列&lt;/font&gt;" style="ellipse;shape=cloud;whiteSpace=wrap;html=1;fillColor=#f5f5f5;strokeColor=#666666;fontColor=#333333;" parent="9EPrf9KzIyddG6WuSStG-1" vertex="1">
          <mxGeometry x="50" y="70" width="120" height="80" as="geometry" />
        </mxCell>
        <mxCell id="9EPrf9KzIyddG6WuSStG-9" value="b" style="rounded=0;whiteSpace=wrap;html=1;fontSize=18;fillColor=#F08E81;strokeColor=#FFFFFF;fontColor=#1A1A1A;" parent="9EPrf9KzIyddG6WuSStG-1" vertex="1">
          <mxGeometry x="302" y="80" width="88" height="60" as="geometry" />
        </mxCell>
        <mxCell id="9EPrf9KzIyddG6WuSStG-10" value="c" style="rounded=0;whiteSpace=wrap;html=1;fontSize=18;fillColor=#F08E81;strokeColor=#FFFFFF;fontColor=#1A1A1A;" parent="9EPrf9KzIyddG6WuSStG-1" vertex="1">
          <mxGeometry x="390" y="80" width="88" height="60" as="geometry" />
        </mxCell>
        <mxCell id="9EPrf9KzIyddG6WuSStG-11" value="d" style="rounded=0;whiteSpace=wrap;html=1;fontSize=18;fillColor=#F08E81;strokeColor=#FFFFFF;fontColor=#1A1A1A;" parent="9EPrf9KzIyddG6WuSStG-1" vertex="1">
          <mxGeometry x="478" y="80" width="88" height="60" as="geometry" />
        </mxCell>
        <mxCell id="9EPrf9KzIyddG6WuSStG-12" value="f" style="rounded=0;whiteSpace=wrap;html=1;fontSize=18;fillColor=#F08E81;strokeColor=#FFFFFF;fontColor=#1A1A1A;" parent="9EPrf9KzIyddG6WuSStG-1" vertex="1">
          <mxGeometry x="566" y="80" width="88" height="60" as="geometry" />
        </mxCell>
        <mxCell id="9EPrf9KzIyddG6WuSStG-13" value="&lt;span style=&quot;font-size: 18px&quot;&gt;front&lt;/span&gt;" style="ellipse;shape=cloud;whiteSpace=wrap;html=1;fillColor=#f5f5f5;strokeColor=#666666;fontColor=#333333;" parent="9EPrf9KzIyddG6WuSStG-1" vertex="1">
          <mxGeometry x="198" y="-54" width="120" height="80" as="geometry" />
        </mxCell>
        <mxCell id="9EPrf9KzIyddG6WuSStG-14" value="&lt;font style=&quot;font-size: 18px&quot;&gt;rear&lt;/font&gt;" style="ellipse;shape=cloud;whiteSpace=wrap;html=1;fillColor=#f5f5f5;strokeColor=#666666;fontColor=#333333;" parent="9EPrf9KzIyddG6WuSStG-1" vertex="1">
          <mxGeometry x="638" y="-53.99999999999997" width="120" height="80" as="geometry" />
        </mxCell>
        <mxCell id="9EPrf9KzIyddG6WuSStG-15" value="" style="edgeStyle=orthogonalEdgeStyle;rounded=0;orthogonalLoop=1;jettySize=auto;html=1;" parent="9EPrf9KzIyddG6WuSStG-1" source="9EPrf9KzIyddG6WuSStG-16" target="9EPrf9KzIyddG6WuSStG-14" edge="1">
          <mxGeometry relative="1" as="geometry" />
        </mxCell>
        <mxCell id="9EPrf9KzIyddG6WuSStG-16" value="Null" style="rounded=0;whiteSpace=wrap;html=1;fontSize=18;fillColor=#F08E81;strokeColor=#FFFFFF;fontColor=#1A1A1A;" parent="9EPrf9KzIyddG6WuSStG-1" vertex="1">
          <mxGeometry x="654" y="80" width="88" height="60" as="geometry" />
        </mxCell>
        <mxCell id="9EPrf9KzIyddG6WuSStG-17" value="" style="edgeStyle=orthogonalEdgeStyle;rounded=0;orthogonalLoop=1;jettySize=auto;html=1;" parent="9EPrf9KzIyddG6WuSStG-1" source="9EPrf9KzIyddG6WuSStG-18" target="9EPrf9KzIyddG6WuSStG-24" edge="1">
          <mxGeometry relative="1" as="geometry" />
        </mxCell>
        <mxCell id="9EPrf9KzIyddG6WuSStG-18" value="a" style="rounded=0;whiteSpace=wrap;html=1;fontSize=18;fillColor=#F08E81;strokeColor=#FFFFFF;fontColor=#1A1A1A;" parent="9EPrf9KzIyddG6WuSStG-1" vertex="1">
          <mxGeometry x="216" y="422" width="88" height="60" as="geometry" />
        </mxCell>
        <mxCell id="9EPrf9KzIyddG6WuSStG-19" style="edgeStyle=orthogonalEdgeStyle;rounded=0;orthogonalLoop=1;jettySize=auto;html=1;exitX=0.5;exitY=1;exitDx=0;exitDy=0;fontSize=18;strokeColor=#182E3E;fontColor=#1A1A1A;labelBackgroundColor=#B0E3E6;" parent="9EPrf9KzIyddG6WuSStG-1" source="9EPrf9KzIyddG6WuSStG-18" target="9EPrf9KzIyddG6WuSStG-18" edge="1">
          <mxGeometry relative="1" as="geometry" />
        </mxCell>
        <mxCell id="9EPrf9KzIyddG6WuSStG-20" value="b" style="rounded=0;whiteSpace=wrap;html=1;fontSize=18;fillColor=#F08E81;strokeColor=#FFFFFF;fontColor=#1A1A1A;" parent="9EPrf9KzIyddG6WuSStG-1" vertex="1">
          <mxGeometry x="304" y="422" width="88" height="60" as="geometry" />
        </mxCell>
        <mxCell id="9EPrf9KzIyddG6WuSStG-21" value="c" style="rounded=0;whiteSpace=wrap;html=1;fontSize=18;fillColor=#F08E81;strokeColor=#FFFFFF;fontColor=#1A1A1A;" parent="9EPrf9KzIyddG6WuSStG-1" vertex="1">
          <mxGeometry x="392" y="422" width="88" height="60" as="geometry" />
        </mxCell>
        <mxCell id="9EPrf9KzIyddG6WuSStG-22" value="d" style="rounded=0;whiteSpace=wrap;html=1;fontSize=18;fillColor=#F08E81;strokeColor=#FFFFFF;fontColor=#1A1A1A;" parent="9EPrf9KzIyddG6WuSStG-1" vertex="1">
          <mxGeometry x="480" y="422" width="88" height="60" as="geometry" />
        </mxCell>
        <mxCell id="9EPrf9KzIyddG6WuSStG-23" value="f" style="rounded=0;whiteSpace=wrap;html=1;fontSize=18;fillColor=#F08E81;strokeColor=#FFFFFF;fontColor=#1A1A1A;" parent="9EPrf9KzIyddG6WuSStG-1" vertex="1">
          <mxGeometry x="568" y="422" width="88" height="60" as="geometry" />
        </mxCell>
        <mxCell id="9EPrf9KzIyddG6WuSStG-24" value="&lt;span style=&quot;font-size: 18px&quot;&gt;front&lt;/span&gt;" style="ellipse;shape=cloud;whiteSpace=wrap;html=1;fillColor=#f5f5f5;strokeColor=#666666;fontColor=#333333;" parent="9EPrf9KzIyddG6WuSStG-1" vertex="1">
          <mxGeometry x="200" y="288" width="120" height="80" as="geometry" />
        </mxCell>
        <mxCell id="9EPrf9KzIyddG6WuSStG-25" value="&lt;font style=&quot;font-size: 18px&quot;&gt;rear&lt;/font&gt;" style="ellipse;shape=cloud;whiteSpace=wrap;html=1;fillColor=#f5f5f5;strokeColor=#666666;fontColor=#333333;" parent="9EPrf9KzIyddG6WuSStG-1" vertex="1">
          <mxGeometry x="728" y="288" width="120" height="80" as="geometry" />
        </mxCell>
        <mxCell id="9EPrf9KzIyddG6WuSStG-26" value="e" style="rounded=0;whiteSpace=wrap;html=1;fontSize=18;fillColor=#F08E81;strokeColor=#FFFFFF;fontColor=#1A1A1A;" parent="9EPrf9KzIyddG6WuSStG-1" vertex="1">
          <mxGeometry x="656" y="422" width="88" height="60" as="geometry" />
        </mxCell>
        <mxCell id="9EPrf9KzIyddG6WuSStG-27" value="" style="edgeStyle=orthogonalEdgeStyle;rounded=0;orthogonalLoop=1;jettySize=auto;html=1;" parent="9EPrf9KzIyddG6WuSStG-1" source="9EPrf9KzIyddG6WuSStG-28" target="9EPrf9KzIyddG6WuSStG-25" edge="1">
          <mxGeometry relative="1" as="geometry" />
        </mxCell>
        <mxCell id="9EPrf9KzIyddG6WuSStG-28" value="Null" style="rounded=0;whiteSpace=wrap;html=1;fontSize=18;fillColor=#F08E81;strokeColor=#FFFFFF;fontColor=#1A1A1A;" parent="9EPrf9KzIyddG6WuSStG-1" vertex="1">
          <mxGeometry x="744" y="422" width="88" height="60" as="geometry" />
        </mxCell>
        <mxCell id="9EPrf9KzIyddG6WuSStG-29" value="&lt;span style=&quot;font-size: 18px&quot;&gt;入队&lt;/span&gt;" style="ellipse;shape=cloud;whiteSpace=wrap;html=1;fillColor=#f5f5f5;strokeColor=#666666;fontColor=#333333;" parent="9EPrf9KzIyddG6WuSStG-1" vertex="1">
          <mxGeometry x="50" y="412" width="120" height="80" as="geometry" />
        </mxCell>
        <mxCell id="9EPrf9KzIyddG6WuSStG-30" style="edgeStyle=orthogonalEdgeStyle;rounded=0;orthogonalLoop=1;jettySize=auto;html=1;exitX=0.5;exitY=1;exitDx=0;exitDy=0;fontSize=18;strokeColor=#182E3E;fontColor=#1A1A1A;labelBackgroundColor=#B0E3E6;" parent="9EPrf9KzIyddG6WuSStG-1" edge="1">
          <mxGeometry relative="1" as="geometry">
            <mxPoint x="258" y="644" as="sourcePoint" />
            <mxPoint x="258" y="644" as="targetPoint" />
          </mxGeometry>
        </mxCell>
        <mxCell id="9EPrf9KzIyddG6WuSStG-31" value="a" style="rounded=0;whiteSpace=wrap;html=1;fontSize=18;fillColor=#F08E81;strokeColor=#FFFFFF;fontColor=#1A1A1A;" parent="9EPrf9KzIyddG6WuSStG-1" vertex="1">
          <mxGeometry x="214" y="660" width="88" height="60" as="geometry" />
        </mxCell>
        <mxCell id="9EPrf9KzIyddG6WuSStG-32" style="edgeStyle=orthogonalEdgeStyle;rounded=0;orthogonalLoop=1;jettySize=auto;html=1;exitX=0.5;exitY=1;exitDx=0;exitDy=0;fontSize=18;strokeColor=#182E3E;fontColor=#1A1A1A;labelBackgroundColor=#B0E3E6;" parent="9EPrf9KzIyddG6WuSStG-1" source="9EPrf9KzIyddG6WuSStG-31" target="9EPrf9KzIyddG6WuSStG-31" edge="1">
          <mxGeometry relative="1" as="geometry" />
        </mxCell>
        <mxCell id="9EPrf9KzIyddG6WuSStG-33" value="" style="edgeStyle=orthogonalEdgeStyle;rounded=0;orthogonalLoop=1;jettySize=auto;html=1;" parent="9EPrf9KzIyddG6WuSStG-1" source="9EPrf9KzIyddG6WuSStG-34" target="9EPrf9KzIyddG6WuSStG-38" edge="1">
          <mxGeometry relative="1" as="geometry" />
        </mxCell>
        <mxCell id="9EPrf9KzIyddG6WuSStG-34" value="b" style="rounded=0;whiteSpace=wrap;html=1;fontSize=18;fillColor=#F08E81;strokeColor=#FFFFFF;fontColor=#1A1A1A;" parent="9EPrf9KzIyddG6WuSStG-1" vertex="1">
          <mxGeometry x="302" y="660" width="88" height="60" as="geometry" />
        </mxCell>
        <mxCell id="9EPrf9KzIyddG6WuSStG-35" value="c" style="rounded=0;whiteSpace=wrap;html=1;fontSize=18;fillColor=#F08E81;strokeColor=#FFFFFF;fontColor=#1A1A1A;" parent="9EPrf9KzIyddG6WuSStG-1" vertex="1">
          <mxGeometry x="390" y="660" width="88" height="60" as="geometry" />
        </mxCell>
        <mxCell id="9EPrf9KzIyddG6WuSStG-36" value="d" style="rounded=0;whiteSpace=wrap;html=1;fontSize=18;fillColor=#F08E81;strokeColor=#FFFFFF;fontColor=#1A1A1A;" parent="9EPrf9KzIyddG6WuSStG-1" vertex="1">
          <mxGeometry x="478" y="660" width="88" height="60" as="geometry" />
        </mxCell>
        <mxCell id="9EPrf9KzIyddG6WuSStG-37" value="f" style="rounded=0;whiteSpace=wrap;html=1;fontSize=18;fillColor=#F08E81;strokeColor=#FFFFFF;fontColor=#1A1A1A;" parent="9EPrf9KzIyddG6WuSStG-1" vertex="1">
          <mxGeometry x="566" y="660" width="88" height="60" as="geometry" />
        </mxCell>
        <mxCell id="9EPrf9KzIyddG6WuSStG-38" value="&lt;span style=&quot;font-size: 18px&quot;&gt;front&lt;/span&gt;" style="ellipse;shape=cloud;whiteSpace=wrap;html=1;fillColor=#f5f5f5;strokeColor=#666666;fontColor=#333333;" parent="9EPrf9KzIyddG6WuSStG-1" vertex="1">
          <mxGeometry x="286" y="526" width="120" height="80" as="geometry" />
        </mxCell>
        <mxCell id="9EPrf9KzIyddG6WuSStG-39" value="e" style="rounded=0;whiteSpace=wrap;html=1;fontSize=18;fillColor=#F08E81;strokeColor=#FFFFFF;fontColor=#1A1A1A;" parent="9EPrf9KzIyddG6WuSStG-1" vertex="1">
          <mxGeometry x="654" y="660" width="88" height="60" as="geometry" />
        </mxCell>
        <mxCell id="9EPrf9KzIyddG6WuSStG-40" value="" style="edgeStyle=orthogonalEdgeStyle;rounded=0;orthogonalLoop=1;jettySize=auto;html=1;" parent="9EPrf9KzIyddG6WuSStG-1" source="9EPrf9KzIyddG6WuSStG-41" edge="1">
          <mxGeometry relative="1" as="geometry">
            <mxPoint x="786" y="606" as="targetPoint" />
          </mxGeometry>
        </mxCell>
        <mxCell id="9EPrf9KzIyddG6WuSStG-41" value="Null" style="rounded=0;whiteSpace=wrap;html=1;fontSize=18;fillColor=#F08E81;strokeColor=#FFFFFF;fontColor=#1A1A1A;" parent="9EPrf9KzIyddG6WuSStG-1" vertex="1">
          <mxGeometry x="742" y="660" width="88" height="60" as="geometry" />
        </mxCell>
        <mxCell id="9EPrf9KzIyddG6WuSStG-42" value="&lt;font style=&quot;font-size: 18px&quot;&gt;rear&lt;/font&gt;" style="ellipse;shape=cloud;whiteSpace=wrap;html=1;fillColor=#f5f5f5;strokeColor=#666666;fontColor=#333333;" parent="9EPrf9KzIyddG6WuSStG-1" vertex="1">
          <mxGeometry x="726" y="526" width="120" height="80" as="geometry" />
        </mxCell>
        <mxCell id="9EPrf9KzIyddG6WuSStG-43" value="&lt;span style=&quot;font-size: 18px&quot;&gt;出队&lt;/span&gt;" style="ellipse;shape=cloud;whiteSpace=wrap;html=1;fillColor=#f5f5f5;strokeColor=#666666;fontColor=#333333;" parent="9EPrf9KzIyddG6WuSStG-1" vertex="1">
          <mxGeometry x="50" y="640" width="120" height="80" as="geometry" />
        </mxCell>
      </root>
    </mxGraphModel>
  </diagram>
  <diagram id="AUchN_Fa4zS8_WPQ3bzZ" name="queue3">
    <mxGraphModel dx="5173" dy="1640" grid="1" gridSize="10" guides="1" tooltips="1" connect="1" arrows="1" fold="1" page="1" pageScale="1" pageWidth="850" pageHeight="1100" background="#B0E3E6" math="0" shadow="0">
      <root>
        <mxCell id="eR6jMozR9W9uxa6AGeTk-0" />
        <mxCell id="eR6jMozR9W9uxa6AGeTk-1" parent="eR6jMozR9W9uxa6AGeTk-0" />
        <mxCell id="eR6jMozR9W9uxa6AGeTk-2" value="" style="edgeStyle=orthogonalEdgeStyle;rounded=0;orthogonalLoop=1;jettySize=auto;html=1;" edge="1" parent="eR6jMozR9W9uxa6AGeTk-1" source="eR6jMozR9W9uxa6AGeTk-3" target="eR6jMozR9W9uxa6AGeTk-17">
          <mxGeometry relative="1" as="geometry" />
        </mxCell>
        <mxCell id="eR6jMozR9W9uxa6AGeTk-3" value="a" style="rounded=0;whiteSpace=wrap;html=1;sketch=0;fontSize=18;fontColor=#1A1A1A;strokeColor=#FFFFFF;fillColor=#F08E81;" vertex="1" parent="eR6jMozR9W9uxa6AGeTk-1">
          <mxGeometry x="-3801" y="-400" width="80" height="60" as="geometry" />
        </mxCell>
        <mxCell id="eR6jMozR9W9uxa6AGeTk-4" value="" style="edgeStyle=orthogonalEdgeStyle;curved=0;rounded=1;sketch=0;orthogonalLoop=1;jettySize=auto;html=1;fontColor=#1A1A1A;strokeColor=#182E3E;" edge="1" parent="eR6jMozR9W9uxa6AGeTk-1" source="eR6jMozR9W9uxa6AGeTk-5" target="eR6jMozR9W9uxa6AGeTk-6">
          <mxGeometry relative="1" as="geometry" />
        </mxCell>
        <mxCell id="eR6jMozR9W9uxa6AGeTk-5" value="next" style="rounded=0;whiteSpace=wrap;html=1;sketch=0;fontSize=18;fontColor=#1A1A1A;strokeColor=#FFFFFF;fillColor=#F08E81;" vertex="1" parent="eR6jMozR9W9uxa6AGeTk-1">
          <mxGeometry x="-3721" y="-400" width="80" height="60" as="geometry" />
        </mxCell>
        <mxCell id="eR6jMozR9W9uxa6AGeTk-6" value="b" style="rounded=0;whiteSpace=wrap;html=1;sketch=0;fontSize=18;fontColor=#1A1A1A;strokeColor=#FFFFFF;fillColor=#F08E81;" vertex="1" parent="eR6jMozR9W9uxa6AGeTk-1">
          <mxGeometry x="-3560" y="-400" width="80" height="60" as="geometry" />
        </mxCell>
        <mxCell id="eR6jMozR9W9uxa6AGeTk-7" value="" style="edgeStyle=orthogonalEdgeStyle;curved=0;rounded=1;sketch=0;orthogonalLoop=1;jettySize=auto;html=1;fontColor=#1A1A1A;strokeColor=#182E3E;" edge="1" parent="eR6jMozR9W9uxa6AGeTk-1" source="eR6jMozR9W9uxa6AGeTk-8" target="eR6jMozR9W9uxa6AGeTk-10">
          <mxGeometry relative="1" as="geometry" />
        </mxCell>
        <mxCell id="eR6jMozR9W9uxa6AGeTk-8" value="next" style="rounded=0;whiteSpace=wrap;html=1;sketch=0;fontSize=18;fontColor=#1A1A1A;strokeColor=#FFFFFF;fillColor=#F08E81;" vertex="1" parent="eR6jMozR9W9uxa6AGeTk-1">
          <mxGeometry x="-3480" y="-400" width="80" height="60" as="geometry" />
        </mxCell>
        <mxCell id="eR6jMozR9W9uxa6AGeTk-9" value="" style="edgeStyle=orthogonalEdgeStyle;rounded=0;orthogonalLoop=1;jettySize=auto;html=1;" edge="1" parent="eR6jMozR9W9uxa6AGeTk-1" source="eR6jMozR9W9uxa6AGeTk-10" target="eR6jMozR9W9uxa6AGeTk-18">
          <mxGeometry relative="1" as="geometry" />
        </mxCell>
        <mxCell id="eR6jMozR9W9uxa6AGeTk-10" value="c" style="rounded=0;whiteSpace=wrap;html=1;sketch=0;fontSize=18;fontColor=#1A1A1A;strokeColor=#FFFFFF;fillColor=#F08E81;" vertex="1" parent="eR6jMozR9W9uxa6AGeTk-1">
          <mxGeometry x="-3320" y="-400" width="80" height="60" as="geometry" />
        </mxCell>
        <mxCell id="eR6jMozR9W9uxa6AGeTk-11" value="" style="edgeStyle=orthogonalEdgeStyle;curved=0;rounded=1;sketch=0;orthogonalLoop=1;jettySize=auto;html=1;fontColor=#1A1A1A;strokeColor=#182E3E;" edge="1" parent="eR6jMozR9W9uxa6AGeTk-1" source="eR6jMozR9W9uxa6AGeTk-12">
          <mxGeometry relative="1" as="geometry">
            <mxPoint x="-3080" y="-370" as="targetPoint" />
          </mxGeometry>
        </mxCell>
        <mxCell id="eR6jMozR9W9uxa6AGeTk-12" value="next" style="rounded=0;whiteSpace=wrap;html=1;sketch=0;fontSize=18;fontColor=#1A1A1A;strokeColor=#FFFFFF;fillColor=#F08E81;" vertex="1" parent="eR6jMozR9W9uxa6AGeTk-1">
          <mxGeometry x="-3240" y="-400" width="80" height="60" as="geometry" />
        </mxCell>
        <mxCell id="eR6jMozR9W9uxa6AGeTk-13" value="Null" style="rounded=0;whiteSpace=wrap;html=1;sketch=0;fontSize=18;fontColor=#1A1A1A;strokeColor=#FFFFFF;fillColor=#F08E81;" vertex="1" parent="eR6jMozR9W9uxa6AGeTk-1">
          <mxGeometry x="-3080" y="-400" width="80" height="60" as="geometry" />
        </mxCell>
        <mxCell id="eR6jMozR9W9uxa6AGeTk-14" value="&lt;font style=&quot;font-size: 18px&quot;&gt;队列&lt;/font&gt;" style="ellipse;shape=cloud;whiteSpace=wrap;html=1;fillColor=#f5f5f5;strokeColor=#666666;fontColor=#333333;" vertex="1" parent="eR6jMozR9W9uxa6AGeTk-1">
          <mxGeometry x="-3990" y="-410" width="120" height="80" as="geometry" />
        </mxCell>
        <mxCell id="eR6jMozR9W9uxa6AGeTk-15" value="&lt;span style=&quot;font-size: 18px&quot;&gt;队头&lt;/span&gt;" style="ellipse;shape=cloud;whiteSpace=wrap;html=1;fillColor=#f5f5f5;strokeColor=#666666;fontColor=#333333;" vertex="1" parent="eR6jMozR9W9uxa6AGeTk-1">
          <mxGeometry x="-3821" y="-540" width="120" height="80" as="geometry" />
        </mxCell>
        <mxCell id="eR6jMozR9W9uxa6AGeTk-16" value="&lt;span style=&quot;font-size: 18px&quot;&gt;队尾&lt;/span&gt;" style="ellipse;shape=cloud;whiteSpace=wrap;html=1;fillColor=#f5f5f5;strokeColor=#666666;fontColor=#333333;" vertex="1" parent="eR6jMozR9W9uxa6AGeTk-1">
          <mxGeometry x="-3340" y="-540" width="120" height="80" as="geometry" />
        </mxCell>
        <mxCell id="eR6jMozR9W9uxa6AGeTk-17" value="&lt;span style=&quot;font-size: 18px&quot;&gt;head&lt;/span&gt;" style="ellipse;shape=cloud;whiteSpace=wrap;html=1;fillColor=#f5f5f5;strokeColor=#666666;fontColor=#333333;" vertex="1" parent="eR6jMozR9W9uxa6AGeTk-1">
          <mxGeometry x="-3821" y="-260" width="120" height="80" as="geometry" />
        </mxCell>
        <mxCell id="eR6jMozR9W9uxa6AGeTk-18" value="&lt;span style=&quot;font-size: 18px&quot;&gt;end&lt;/span&gt;" style="ellipse;shape=cloud;whiteSpace=wrap;html=1;fillColor=#f5f5f5;strokeColor=#666666;fontColor=#333333;" vertex="1" parent="eR6jMozR9W9uxa6AGeTk-1">
          <mxGeometry x="-3340" y="-260" width="120" height="80" as="geometry" />
        </mxCell>
      </root>
    </mxGraphModel>
  </diagram>
  <diagram id="iIu2YYPjSSBLOml3Bv62" name="queue4">
    <mxGraphModel dx="5173" dy="1640" grid="1" gridSize="10" guides="1" tooltips="1" connect="1" arrows="1" fold="1" page="1" pageScale="1" pageWidth="850" pageHeight="1100" background="#B0E3E6" math="0" shadow="0">
      <root>
        <mxCell id="1QjKgIFID6LnSarKoKZl-0" />
        <mxCell id="1QjKgIFID6LnSarKoKZl-1" parent="1QjKgIFID6LnSarKoKZl-0" />
        <mxCell id="IzfFhFO4mdfIKElKnMSM-0" value="" style="edgeStyle=orthogonalEdgeStyle;rounded=0;orthogonalLoop=1;jettySize=auto;html=1;" edge="1" parent="1QjKgIFID6LnSarKoKZl-1" source="IzfFhFO4mdfIKElKnMSM-1" target="IzfFhFO4mdfIKElKnMSM-15">
          <mxGeometry relative="1" as="geometry" />
        </mxCell>
        <mxCell id="IzfFhFO4mdfIKElKnMSM-1" value="a" style="rounded=0;whiteSpace=wrap;html=1;sketch=0;fontSize=18;fontColor=#1A1A1A;strokeColor=#FFFFFF;fillColor=#F08E81;" vertex="1" parent="1QjKgIFID6LnSarKoKZl-1">
          <mxGeometry x="-3801" y="-400" width="80" height="60" as="geometry" />
        </mxCell>
        <mxCell id="IzfFhFO4mdfIKElKnMSM-2" value="" style="edgeStyle=orthogonalEdgeStyle;curved=0;rounded=1;sketch=0;orthogonalLoop=1;jettySize=auto;html=1;fontColor=#1A1A1A;strokeColor=#182E3E;" edge="1" parent="1QjKgIFID6LnSarKoKZl-1" source="IzfFhFO4mdfIKElKnMSM-3" target="IzfFhFO4mdfIKElKnMSM-4">
          <mxGeometry relative="1" as="geometry" />
        </mxCell>
        <mxCell id="IzfFhFO4mdfIKElKnMSM-3" value="next" style="rounded=0;whiteSpace=wrap;html=1;sketch=0;fontSize=18;fontColor=#1A1A1A;strokeColor=#FFFFFF;fillColor=#F08E81;" vertex="1" parent="1QjKgIFID6LnSarKoKZl-1">
          <mxGeometry x="-3721" y="-400" width="80" height="60" as="geometry" />
        </mxCell>
        <mxCell id="IzfFhFO4mdfIKElKnMSM-4" value="b" style="rounded=0;whiteSpace=wrap;html=1;sketch=0;fontSize=18;fontColor=#1A1A1A;strokeColor=#FFFFFF;fillColor=#F08E81;" vertex="1" parent="1QjKgIFID6LnSarKoKZl-1">
          <mxGeometry x="-3600" y="-400" width="80" height="60" as="geometry" />
        </mxCell>
        <mxCell id="IzfFhFO4mdfIKElKnMSM-5" value="" style="edgeStyle=orthogonalEdgeStyle;curved=0;rounded=1;sketch=0;orthogonalLoop=1;jettySize=auto;html=1;fontColor=#1A1A1A;strokeColor=#182E3E;" edge="1" parent="1QjKgIFID6LnSarKoKZl-1" source="IzfFhFO4mdfIKElKnMSM-6" target="IzfFhFO4mdfIKElKnMSM-8">
          <mxGeometry relative="1" as="geometry" />
        </mxCell>
        <mxCell id="IzfFhFO4mdfIKElKnMSM-6" value="next" style="rounded=0;whiteSpace=wrap;html=1;sketch=0;fontSize=18;fontColor=#1A1A1A;strokeColor=#FFFFFF;fillColor=#F08E81;" vertex="1" parent="1QjKgIFID6LnSarKoKZl-1">
          <mxGeometry x="-3520" y="-400" width="80" height="60" as="geometry" />
        </mxCell>
        <mxCell id="IzfFhFO4mdfIKElKnMSM-7" value="" style="edgeStyle=orthogonalEdgeStyle;rounded=0;orthogonalLoop=1;jettySize=auto;html=1;" edge="1" parent="1QjKgIFID6LnSarKoKZl-1" source="IzfFhFO4mdfIKElKnMSM-8" target="IzfFhFO4mdfIKElKnMSM-16">
          <mxGeometry relative="1" as="geometry" />
        </mxCell>
        <mxCell id="IzfFhFO4mdfIKElKnMSM-8" value="c" style="rounded=0;whiteSpace=wrap;html=1;sketch=0;fontSize=18;fontColor=#1A1A1A;strokeColor=#FFFFFF;fillColor=#F08E81;" vertex="1" parent="1QjKgIFID6LnSarKoKZl-1">
          <mxGeometry x="-3400" y="-400" width="80" height="60" as="geometry" />
        </mxCell>
        <mxCell id="IzfFhFO4mdfIKElKnMSM-9" value="" style="edgeStyle=orthogonalEdgeStyle;rounded=0;orthogonalLoop=1;jettySize=auto;html=1;" edge="1" parent="1QjKgIFID6LnSarKoKZl-1" source="IzfFhFO4mdfIKElKnMSM-10" target="IzfFhFO4mdfIKElKnMSM-11">
          <mxGeometry relative="1" as="geometry" />
        </mxCell>
        <mxCell id="IzfFhFO4mdfIKElKnMSM-10" value="next" style="rounded=0;whiteSpace=wrap;html=1;sketch=0;fontSize=18;fontColor=#1A1A1A;strokeColor=#FFFFFF;fillColor=#F08E81;" vertex="1" parent="1QjKgIFID6LnSarKoKZl-1">
          <mxGeometry x="-3320" y="-400" width="80" height="60" as="geometry" />
        </mxCell>
        <mxCell id="IzfFhFO4mdfIKElKnMSM-11" value="Null" style="rounded=0;whiteSpace=wrap;html=1;sketch=0;fontSize=18;fontColor=#1A1A1A;strokeColor=#FFFFFF;fillColor=#F08E81;" vertex="1" parent="1QjKgIFID6LnSarKoKZl-1">
          <mxGeometry x="-3200" y="-400" width="80" height="60" as="geometry" />
        </mxCell>
        <mxCell id="IzfFhFO4mdfIKElKnMSM-12" value="&lt;font style=&quot;font-size: 18px&quot;&gt;队列&lt;/font&gt;" style="ellipse;shape=cloud;whiteSpace=wrap;html=1;fillColor=#f5f5f5;strokeColor=#666666;fontColor=#333333;" vertex="1" parent="1QjKgIFID6LnSarKoKZl-1">
          <mxGeometry x="-3950" y="-410" width="120" height="80" as="geometry" />
        </mxCell>
        <mxCell id="IzfFhFO4mdfIKElKnMSM-13" value="&lt;span style=&quot;font-size: 18px&quot;&gt;队头&lt;/span&gt;" style="ellipse;shape=cloud;whiteSpace=wrap;html=1;fillColor=#f5f5f5;strokeColor=#666666;fontColor=#333333;" vertex="1" parent="1QjKgIFID6LnSarKoKZl-1">
          <mxGeometry x="-3821" y="-540" width="120" height="80" as="geometry" />
        </mxCell>
        <mxCell id="IzfFhFO4mdfIKElKnMSM-14" value="&lt;span style=&quot;font-size: 18px&quot;&gt;队尾&lt;/span&gt;" style="ellipse;shape=cloud;whiteSpace=wrap;html=1;fillColor=#f5f5f5;strokeColor=#666666;fontColor=#333333;" vertex="1" parent="1QjKgIFID6LnSarKoKZl-1">
          <mxGeometry x="-3420" y="-540" width="120" height="80" as="geometry" />
        </mxCell>
        <mxCell id="IzfFhFO4mdfIKElKnMSM-15" value="&lt;span style=&quot;font-size: 18px&quot;&gt;head&lt;/span&gt;" style="ellipse;shape=cloud;whiteSpace=wrap;html=1;fillColor=#f5f5f5;strokeColor=#666666;fontColor=#333333;" vertex="1" parent="1QjKgIFID6LnSarKoKZl-1">
          <mxGeometry x="-3821" y="-260" width="120" height="80" as="geometry" />
        </mxCell>
        <mxCell id="IzfFhFO4mdfIKElKnMSM-16" value="&lt;span style=&quot;font-size: 18px&quot;&gt;end&lt;/span&gt;" style="ellipse;shape=cloud;whiteSpace=wrap;html=1;fillColor=#f5f5f5;strokeColor=#666666;fontColor=#333333;" vertex="1" parent="1QjKgIFID6LnSarKoKZl-1">
          <mxGeometry x="-3420" y="-260" width="120" height="80" as="geometry" />
        </mxCell>
        <mxCell id="IzfFhFO4mdfIKElKnMSM-17" value="" style="edgeStyle=orthogonalEdgeStyle;rounded=0;orthogonalLoop=1;jettySize=auto;html=1;" edge="1" parent="1QjKgIFID6LnSarKoKZl-1" source="IzfFhFO4mdfIKElKnMSM-18" target="IzfFhFO4mdfIKElKnMSM-28">
          <mxGeometry relative="1" as="geometry" />
        </mxCell>
        <mxCell id="IzfFhFO4mdfIKElKnMSM-18" value="a" style="rounded=0;whiteSpace=wrap;html=1;sketch=0;fontSize=18;fontColor=#1A1A1A;strokeColor=#FFFFFF;fillColor=#F08E81;" vertex="1" parent="1QjKgIFID6LnSarKoKZl-1">
          <mxGeometry x="-3805" y="-120" width="80" height="60" as="geometry" />
        </mxCell>
        <mxCell id="IzfFhFO4mdfIKElKnMSM-19" value="" style="edgeStyle=orthogonalEdgeStyle;curved=0;rounded=1;sketch=0;orthogonalLoop=1;jettySize=auto;html=1;fontColor=#1A1A1A;strokeColor=#182E3E;" edge="1" parent="1QjKgIFID6LnSarKoKZl-1" source="IzfFhFO4mdfIKElKnMSM-20" target="IzfFhFO4mdfIKElKnMSM-21">
          <mxGeometry relative="1" as="geometry" />
        </mxCell>
        <mxCell id="IzfFhFO4mdfIKElKnMSM-20" value="next" style="rounded=0;whiteSpace=wrap;html=1;sketch=0;fontSize=18;fontColor=#1A1A1A;strokeColor=#FFFFFF;fillColor=#F08E81;" vertex="1" parent="1QjKgIFID6LnSarKoKZl-1">
          <mxGeometry x="-3725" y="-120" width="80" height="60" as="geometry" />
        </mxCell>
        <mxCell id="IzfFhFO4mdfIKElKnMSM-21" value="b" style="rounded=0;whiteSpace=wrap;html=1;sketch=0;fontSize=18;fontColor=#1A1A1A;strokeColor=#FFFFFF;fillColor=#F08E81;" vertex="1" parent="1QjKgIFID6LnSarKoKZl-1">
          <mxGeometry x="-3600" y="-120" width="80" height="60" as="geometry" />
        </mxCell>
        <mxCell id="IzfFhFO4mdfIKElKnMSM-22" value="" style="edgeStyle=orthogonalEdgeStyle;curved=0;rounded=1;sketch=0;orthogonalLoop=1;jettySize=auto;html=1;fontColor=#1A1A1A;strokeColor=#182E3E;" edge="1" parent="1QjKgIFID6LnSarKoKZl-1" source="IzfFhFO4mdfIKElKnMSM-23" target="IzfFhFO4mdfIKElKnMSM-24">
          <mxGeometry relative="1" as="geometry" />
        </mxCell>
        <mxCell id="IzfFhFO4mdfIKElKnMSM-23" value="next" style="rounded=0;whiteSpace=wrap;html=1;sketch=0;fontSize=18;fontColor=#1A1A1A;strokeColor=#FFFFFF;fillColor=#F08E81;" vertex="1" parent="1QjKgIFID6LnSarKoKZl-1">
          <mxGeometry x="-3520" y="-120" width="80" height="60" as="geometry" />
        </mxCell>
        <mxCell id="IzfFhFO4mdfIKElKnMSM-24" value="c" style="rounded=0;whiteSpace=wrap;html=1;sketch=0;fontSize=18;fontColor=#1A1A1A;strokeColor=#FFFFFF;fillColor=#F08E81;" vertex="1" parent="1QjKgIFID6LnSarKoKZl-1">
          <mxGeometry x="-3400" y="-120" width="80" height="60" as="geometry" />
        </mxCell>
        <mxCell id="IzfFhFO4mdfIKElKnMSM-25" value="" style="edgeStyle=orthogonalEdgeStyle;rounded=0;orthogonalLoop=1;jettySize=auto;html=1;" edge="1" parent="1QjKgIFID6LnSarKoKZl-1" source="IzfFhFO4mdfIKElKnMSM-26" target="IzfFhFO4mdfIKElKnMSM-32">
          <mxGeometry relative="1" as="geometry" />
        </mxCell>
        <mxCell id="IzfFhFO4mdfIKElKnMSM-26" value="next" style="rounded=0;whiteSpace=wrap;html=1;sketch=0;fontSize=18;fontColor=#1A1A1A;strokeColor=#FFFFFF;fillColor=#F08E81;" vertex="1" parent="1QjKgIFID6LnSarKoKZl-1">
          <mxGeometry x="-3320" y="-120" width="80" height="60" as="geometry" />
        </mxCell>
        <mxCell id="IzfFhFO4mdfIKElKnMSM-27" value="Null" style="rounded=0;whiteSpace=wrap;html=1;sketch=0;fontSize=18;fontColor=#1A1A1A;strokeColor=#FFFFFF;fillColor=#F08E81;" vertex="1" parent="1QjKgIFID6LnSarKoKZl-1">
          <mxGeometry x="-3000" y="-120" width="80" height="60" as="geometry" />
        </mxCell>
        <mxCell id="IzfFhFO4mdfIKElKnMSM-28" value="&lt;span style=&quot;font-size: 18px&quot;&gt;head&lt;/span&gt;" style="ellipse;shape=cloud;whiteSpace=wrap;html=1;fillColor=#f5f5f5;strokeColor=#666666;fontColor=#333333;" vertex="1" parent="1QjKgIFID6LnSarKoKZl-1">
          <mxGeometry x="-3825" y="20" width="120" height="80" as="geometry" />
        </mxCell>
        <mxCell id="IzfFhFO4mdfIKElKnMSM-29" value="&lt;span style=&quot;font-size: 18px&quot;&gt;end&lt;/span&gt;" style="ellipse;shape=cloud;whiteSpace=wrap;html=1;fillColor=#f5f5f5;strokeColor=#666666;fontColor=#333333;" vertex="1" parent="1QjKgIFID6LnSarKoKZl-1">
          <mxGeometry x="-3220" y="20" width="120" height="80" as="geometry" />
        </mxCell>
        <mxCell id="IzfFhFO4mdfIKElKnMSM-30" value="&lt;span style=&quot;font-size: 18px&quot;&gt;入队&lt;/span&gt;" style="ellipse;shape=cloud;whiteSpace=wrap;html=1;fillColor=#f5f5f5;strokeColor=#666666;fontColor=#333333;" vertex="1" parent="1QjKgIFID6LnSarKoKZl-1">
          <mxGeometry x="-3950" y="-130" width="120" height="80" as="geometry" />
        </mxCell>
        <mxCell id="IzfFhFO4mdfIKElKnMSM-31" value="" style="edgeStyle=orthogonalEdgeStyle;rounded=0;orthogonalLoop=1;jettySize=auto;html=1;" edge="1" parent="1QjKgIFID6LnSarKoKZl-1" source="IzfFhFO4mdfIKElKnMSM-32" target="IzfFhFO4mdfIKElKnMSM-29">
          <mxGeometry relative="1" as="geometry" />
        </mxCell>
        <mxCell id="IzfFhFO4mdfIKElKnMSM-32" value="d" style="rounded=0;whiteSpace=wrap;html=1;sketch=0;fontSize=18;fontColor=#1A1A1A;strokeColor=#FFFFFF;fillColor=#F08E81;" vertex="1" parent="1QjKgIFID6LnSarKoKZl-1">
          <mxGeometry x="-3200" y="-120" width="80" height="60" as="geometry" />
        </mxCell>
        <mxCell id="IzfFhFO4mdfIKElKnMSM-33" value="" style="edgeStyle=orthogonalEdgeStyle;rounded=0;orthogonalLoop=1;jettySize=auto;html=1;" edge="1" parent="1QjKgIFID6LnSarKoKZl-1" source="IzfFhFO4mdfIKElKnMSM-34" target="IzfFhFO4mdfIKElKnMSM-27">
          <mxGeometry relative="1" as="geometry" />
        </mxCell>
        <mxCell id="IzfFhFO4mdfIKElKnMSM-34" value="next" style="rounded=0;whiteSpace=wrap;html=1;sketch=0;fontSize=18;fontColor=#1A1A1A;strokeColor=#FFFFFF;fillColor=#F08E81;" vertex="1" parent="1QjKgIFID6LnSarKoKZl-1">
          <mxGeometry x="-3120" y="-120" width="80" height="60" as="geometry" />
        </mxCell>
        <mxCell id="IzfFhFO4mdfIKElKnMSM-35" value="" style="edgeStyle=orthogonalEdgeStyle;rounded=0;orthogonalLoop=1;jettySize=auto;html=1;" edge="1" parent="1QjKgIFID6LnSarKoKZl-1" source="IzfFhFO4mdfIKElKnMSM-36" target="IzfFhFO4mdfIKElKnMSM-45">
          <mxGeometry relative="1" as="geometry" />
        </mxCell>
        <mxCell id="IzfFhFO4mdfIKElKnMSM-36" value="a" style="rounded=0;whiteSpace=wrap;html=1;sketch=0;fontSize=18;fontColor=#1A1A1A;strokeColor=#FFFFFF;fillColor=#F08E81;" vertex="1" parent="1QjKgIFID6LnSarKoKZl-1">
          <mxGeometry x="-3805" y="160" width="80" height="60" as="geometry" />
        </mxCell>
        <mxCell id="IzfFhFO4mdfIKElKnMSM-37" value="" style="edgeStyle=orthogonalEdgeStyle;curved=0;rounded=1;sketch=0;orthogonalLoop=1;jettySize=auto;html=1;fontColor=#1A1A1A;strokeColor=#182E3E;" edge="1" parent="1QjKgIFID6LnSarKoKZl-1" source="IzfFhFO4mdfIKElKnMSM-38" target="IzfFhFO4mdfIKElKnMSM-39">
          <mxGeometry relative="1" as="geometry" />
        </mxCell>
        <mxCell id="IzfFhFO4mdfIKElKnMSM-38" value="next" style="rounded=0;whiteSpace=wrap;html=1;sketch=0;fontSize=18;fontColor=#1A1A1A;strokeColor=#FFFFFF;fillColor=#F08E81;" vertex="1" parent="1QjKgIFID6LnSarKoKZl-1">
          <mxGeometry x="-3725" y="160" width="80" height="60" as="geometry" />
        </mxCell>
        <mxCell id="IzfFhFO4mdfIKElKnMSM-39" value="b" style="rounded=0;whiteSpace=wrap;html=1;sketch=0;fontSize=18;fontColor=#1A1A1A;strokeColor=#FFFFFF;fillColor=#F08E81;" vertex="1" parent="1QjKgIFID6LnSarKoKZl-1">
          <mxGeometry x="-3600" y="160" width="80" height="60" as="geometry" />
        </mxCell>
        <mxCell id="IzfFhFO4mdfIKElKnMSM-40" value="" style="edgeStyle=orthogonalEdgeStyle;curved=0;rounded=1;sketch=0;orthogonalLoop=1;jettySize=auto;html=1;fontColor=#1A1A1A;strokeColor=#182E3E;" edge="1" parent="1QjKgIFID6LnSarKoKZl-1" source="IzfFhFO4mdfIKElKnMSM-41" target="IzfFhFO4mdfIKElKnMSM-42">
          <mxGeometry relative="1" as="geometry" />
        </mxCell>
        <mxCell id="IzfFhFO4mdfIKElKnMSM-41" value="next" style="rounded=0;whiteSpace=wrap;html=1;sketch=0;fontSize=18;fontColor=#1A1A1A;strokeColor=#FFFFFF;fillColor=#F08E81;" vertex="1" parent="1QjKgIFID6LnSarKoKZl-1">
          <mxGeometry x="-3520" y="160" width="80" height="60" as="geometry" />
        </mxCell>
        <mxCell id="IzfFhFO4mdfIKElKnMSM-42" value="c" style="rounded=0;whiteSpace=wrap;html=1;sketch=0;fontSize=18;fontColor=#1A1A1A;strokeColor=#FFFFFF;fillColor=#F08E81;" vertex="1" parent="1QjKgIFID6LnSarKoKZl-1">
          <mxGeometry x="-3400" y="160" width="80" height="60" as="geometry" />
        </mxCell>
        <mxCell id="IzfFhFO4mdfIKElKnMSM-43" value="" style="edgeStyle=orthogonalEdgeStyle;rounded=0;orthogonalLoop=1;jettySize=auto;html=1;" edge="1" parent="1QjKgIFID6LnSarKoKZl-1" source="IzfFhFO4mdfIKElKnMSM-44" target="IzfFhFO4mdfIKElKnMSM-49">
          <mxGeometry relative="1" as="geometry" />
        </mxCell>
        <mxCell id="IzfFhFO4mdfIKElKnMSM-44" value="next" style="rounded=0;whiteSpace=wrap;html=1;sketch=0;fontSize=18;fontColor=#1A1A1A;strokeColor=#FFFFFF;fillColor=#F08E81;" vertex="1" parent="1QjKgIFID6LnSarKoKZl-1">
          <mxGeometry x="-3320" y="160" width="80" height="60" as="geometry" />
        </mxCell>
        <mxCell id="IzfFhFO4mdfIKElKnMSM-45" value="&lt;span style=&quot;font-size: 18px&quot;&gt;head&lt;/span&gt;" style="ellipse;shape=cloud;whiteSpace=wrap;html=1;fillColor=#f5f5f5;strokeColor=#666666;fontColor=#333333;" vertex="1" parent="1QjKgIFID6LnSarKoKZl-1">
          <mxGeometry x="-3620" y="300" width="120" height="80" as="geometry" />
        </mxCell>
        <mxCell id="IzfFhFO4mdfIKElKnMSM-46" value="&lt;span style=&quot;font-size: 18px&quot;&gt;end&lt;/span&gt;" style="ellipse;shape=cloud;whiteSpace=wrap;html=1;fillColor=#f5f5f5;strokeColor=#666666;fontColor=#333333;" vertex="1" parent="1QjKgIFID6LnSarKoKZl-1">
          <mxGeometry x="-3220" y="300" width="120" height="80" as="geometry" />
        </mxCell>
        <mxCell id="IzfFhFO4mdfIKElKnMSM-47" value="&lt;span style=&quot;font-size: 18px&quot;&gt;出队&lt;/span&gt;" style="ellipse;shape=cloud;whiteSpace=wrap;html=1;fillColor=#f5f5f5;strokeColor=#666666;fontColor=#333333;" vertex="1" parent="1QjKgIFID6LnSarKoKZl-1">
          <mxGeometry x="-3950" y="150" width="120" height="80" as="geometry" />
        </mxCell>
        <mxCell id="IzfFhFO4mdfIKElKnMSM-48" value="" style="edgeStyle=orthogonalEdgeStyle;rounded=0;orthogonalLoop=1;jettySize=auto;html=1;" edge="1" parent="1QjKgIFID6LnSarKoKZl-1" source="IzfFhFO4mdfIKElKnMSM-49" target="IzfFhFO4mdfIKElKnMSM-46">
          <mxGeometry relative="1" as="geometry" />
        </mxCell>
        <mxCell id="IzfFhFO4mdfIKElKnMSM-49" value="d" style="rounded=0;whiteSpace=wrap;html=1;sketch=0;fontSize=18;fontColor=#1A1A1A;strokeColor=#FFFFFF;fillColor=#F08E81;" vertex="1" parent="1QjKgIFID6LnSarKoKZl-1">
          <mxGeometry x="-3200" y="160" width="80" height="60" as="geometry" />
        </mxCell>
        <mxCell id="IzfFhFO4mdfIKElKnMSM-50" value="" style="edgeStyle=orthogonalEdgeStyle;rounded=0;orthogonalLoop=1;jettySize=auto;html=1;" edge="1" parent="1QjKgIFID6LnSarKoKZl-1" source="IzfFhFO4mdfIKElKnMSM-51" target="IzfFhFO4mdfIKElKnMSM-52">
          <mxGeometry relative="1" as="geometry" />
        </mxCell>
        <mxCell id="IzfFhFO4mdfIKElKnMSM-51" value="next" style="rounded=0;whiteSpace=wrap;html=1;sketch=0;fontSize=18;fontColor=#1A1A1A;strokeColor=#FFFFFF;fillColor=#F08E81;" vertex="1" parent="1QjKgIFID6LnSarKoKZl-1">
          <mxGeometry x="-3120" y="160" width="80" height="60" as="geometry" />
        </mxCell>
        <mxCell id="IzfFhFO4mdfIKElKnMSM-52" value="Null" style="rounded=0;whiteSpace=wrap;html=1;sketch=0;fontSize=18;fontColor=#1A1A1A;strokeColor=#FFFFFF;fillColor=#F08E81;" vertex="1" parent="1QjKgIFID6LnSarKoKZl-1">
          <mxGeometry x="-3000" y="160" width="80" height="60" as="geometry" />
        </mxCell>
      </root>
    </mxGraphModel>
  </diagram>
  <diagram id="zMh8UDUnwruIiROErlMS" name="stack1">
    <mxGraphModel dx="916" dy="1640" grid="1" gridSize="10" guides="1" tooltips="1" connect="1" arrows="1" fold="1" page="1" pageScale="1" pageWidth="850" pageHeight="1100" background="#B0E3E6" math="0" shadow="0">
      <root>
        <mxCell id="aJ8AaecDsxS9a7sm_qYb-0" />
        <mxCell id="aJ8AaecDsxS9a7sm_qYb-1" parent="aJ8AaecDsxS9a7sm_qYb-0" />
        <mxCell id="VFeeox6LIzfyeM5x-6of-1" value="a" style="rounded=0;whiteSpace=wrap;html=1;fontSize=18;fillColor=#F08E81;strokeColor=#FFFFFF;fontColor=#1A1A1A;" vertex="1" parent="aJ8AaecDsxS9a7sm_qYb-1">
          <mxGeometry x="214" y="80" width="88" height="60" as="geometry" />
        </mxCell>
        <mxCell id="VFeeox6LIzfyeM5x-6of-2" style="edgeStyle=orthogonalEdgeStyle;rounded=0;orthogonalLoop=1;jettySize=auto;html=1;exitX=0.5;exitY=1;exitDx=0;exitDy=0;fontSize=18;strokeColor=#182E3E;fontColor=#1A1A1A;labelBackgroundColor=#B0E3E6;" edge="1" parent="aJ8AaecDsxS9a7sm_qYb-1" source="VFeeox6LIzfyeM5x-6of-1" target="VFeeox6LIzfyeM5x-6of-1">
          <mxGeometry relative="1" as="geometry" />
        </mxCell>
        <mxCell id="VFeeox6LIzfyeM5x-6of-3" value="&lt;font style=&quot;font-size: 18px&quot;&gt;栈底&lt;/font&gt;" style="ellipse;shape=cloud;whiteSpace=wrap;html=1;fillColor=#f5f5f5;strokeColor=#666666;fontColor=#333333;" vertex="1" parent="aJ8AaecDsxS9a7sm_qYb-1">
          <mxGeometry x="198" y="180" width="120" height="80" as="geometry" />
        </mxCell>
        <mxCell id="VFeeox6LIzfyeM5x-6of-4" value="&lt;span style=&quot;font-size: 18px&quot;&gt;栈顶&lt;/span&gt;" style="ellipse;shape=cloud;whiteSpace=wrap;html=1;fillColor=#f5f5f5;strokeColor=#666666;fontColor=#333333;" vertex="1" parent="aJ8AaecDsxS9a7sm_qYb-1">
          <mxGeometry x="550" y="180.00000000000003" width="120" height="80" as="geometry" />
        </mxCell>
        <mxCell id="VFeeox6LIzfyeM5x-6of-5" value="&lt;span style=&quot;font-size: 18px&quot;&gt;栈&lt;/span&gt;" style="ellipse;shape=cloud;whiteSpace=wrap;html=1;fillColor=#f5f5f5;strokeColor=#666666;fontColor=#333333;" vertex="1" parent="aJ8AaecDsxS9a7sm_qYb-1">
          <mxGeometry x="50" y="70" width="120" height="80" as="geometry" />
        </mxCell>
        <mxCell id="VFeeox6LIzfyeM5x-6of-6" value="b" style="rounded=0;whiteSpace=wrap;html=1;fontSize=18;fillColor=#F08E81;strokeColor=#FFFFFF;fontColor=#1A1A1A;" vertex="1" parent="aJ8AaecDsxS9a7sm_qYb-1">
          <mxGeometry x="302" y="80" width="88" height="60" as="geometry" />
        </mxCell>
        <mxCell id="VFeeox6LIzfyeM5x-6of-7" value="c" style="rounded=0;whiteSpace=wrap;html=1;fontSize=18;fillColor=#F08E81;strokeColor=#FFFFFF;fontColor=#1A1A1A;" vertex="1" parent="aJ8AaecDsxS9a7sm_qYb-1">
          <mxGeometry x="390" y="80" width="88" height="60" as="geometry" />
        </mxCell>
        <mxCell id="VFeeox6LIzfyeM5x-6of-8" value="d" style="rounded=0;whiteSpace=wrap;html=1;fontSize=18;fillColor=#F08E81;strokeColor=#FFFFFF;fontColor=#1A1A1A;" vertex="1" parent="aJ8AaecDsxS9a7sm_qYb-1">
          <mxGeometry x="478" y="80" width="88" height="60" as="geometry" />
        </mxCell>
        <mxCell id="VFeeox6LIzfyeM5x-6of-9" value="f" style="rounded=0;whiteSpace=wrap;html=1;fontSize=18;fillColor=#F08E81;strokeColor=#FFFFFF;fontColor=#1A1A1A;" vertex="1" parent="aJ8AaecDsxS9a7sm_qYb-1">
          <mxGeometry x="566" y="80" width="88" height="60" as="geometry" />
        </mxCell>
        <mxCell id="VFeeox6LIzfyeM5x-6of-11" value="&lt;font style=&quot;font-size: 18px&quot;&gt;top&lt;/font&gt;" style="ellipse;shape=cloud;whiteSpace=wrap;html=1;fillColor=#f5f5f5;strokeColor=#666666;fontColor=#333333;" vertex="1" parent="aJ8AaecDsxS9a7sm_qYb-1">
          <mxGeometry x="638" y="-53.99999999999997" width="120" height="80" as="geometry" />
        </mxCell>
        <mxCell id="VFeeox6LIzfyeM5x-6of-12" value="" style="edgeStyle=orthogonalEdgeStyle;rounded=0;orthogonalLoop=1;jettySize=auto;html=1;" edge="1" parent="aJ8AaecDsxS9a7sm_qYb-1" source="VFeeox6LIzfyeM5x-6of-13" target="VFeeox6LIzfyeM5x-6of-11">
          <mxGeometry relative="1" as="geometry" />
        </mxCell>
        <mxCell id="VFeeox6LIzfyeM5x-6of-13" value="Null" style="rounded=0;whiteSpace=wrap;html=1;fontSize=18;fillColor=#F08E81;strokeColor=#FFFFFF;fontColor=#1A1A1A;" vertex="1" parent="aJ8AaecDsxS9a7sm_qYb-1">
          <mxGeometry x="654" y="80" width="88" height="60" as="geometry" />
        </mxCell>
      </root>
    </mxGraphModel>
  </diagram>
  <diagram id="5mTx-gryfxTKKj9fHYU-" name="Page-8">
    <mxGraphModel dx="916" dy="1640" grid="1" gridSize="10" guides="1" tooltips="1" connect="1" arrows="1" fold="1" page="1" pageScale="1" pageWidth="850" pageHeight="1100" background="#B0E3E6" math="0" shadow="0">
      <root>
        <mxCell id="hSr26EDlP_pbOgaP2dKB-0" />
        <mxCell id="hSr26EDlP_pbOgaP2dKB-1" parent="hSr26EDlP_pbOgaP2dKB-0" />
        <mxCell id="V-AF8M1-enauw4m46eBl-0" value="a" style="rounded=0;whiteSpace=wrap;html=1;fontSize=18;fillColor=#F08E81;strokeColor=#FFFFFF;fontColor=#1A1A1A;" vertex="1" parent="hSr26EDlP_pbOgaP2dKB-1">
          <mxGeometry x="214" y="80" width="88" height="60" as="geometry" />
        </mxCell>
        <mxCell id="V-AF8M1-enauw4m46eBl-1" style="edgeStyle=orthogonalEdgeStyle;rounded=0;orthogonalLoop=1;jettySize=auto;html=1;exitX=0.5;exitY=1;exitDx=0;exitDy=0;fontSize=18;strokeColor=#182E3E;fontColor=#1A1A1A;labelBackgroundColor=#B0E3E6;" edge="1" parent="hSr26EDlP_pbOgaP2dKB-1" source="V-AF8M1-enauw4m46eBl-0" target="V-AF8M1-enauw4m46eBl-0">
          <mxGeometry relative="1" as="geometry" />
        </mxCell>
        <mxCell id="V-AF8M1-enauw4m46eBl-2" value="&lt;font style=&quot;font-size: 18px&quot;&gt;栈底&lt;/font&gt;" style="ellipse;shape=cloud;whiteSpace=wrap;html=1;fillColor=#f5f5f5;strokeColor=#666666;fontColor=#333333;" vertex="1" parent="hSr26EDlP_pbOgaP2dKB-1">
          <mxGeometry x="198" y="180" width="120" height="80" as="geometry" />
        </mxCell>
        <mxCell id="V-AF8M1-enauw4m46eBl-3" value="&lt;span style=&quot;font-size: 18px&quot;&gt;栈顶&lt;/span&gt;" style="ellipse;shape=cloud;whiteSpace=wrap;html=1;fillColor=#f5f5f5;strokeColor=#666666;fontColor=#333333;" vertex="1" parent="hSr26EDlP_pbOgaP2dKB-1">
          <mxGeometry x="550" y="180.00000000000003" width="120" height="80" as="geometry" />
        </mxCell>
        <mxCell id="V-AF8M1-enauw4m46eBl-4" value="&lt;span style=&quot;font-size: 18px&quot;&gt;栈&lt;/span&gt;" style="ellipse;shape=cloud;whiteSpace=wrap;html=1;fillColor=#f5f5f5;strokeColor=#666666;fontColor=#333333;" vertex="1" parent="hSr26EDlP_pbOgaP2dKB-1">
          <mxGeometry x="50" y="70" width="120" height="80" as="geometry" />
        </mxCell>
        <mxCell id="V-AF8M1-enauw4m46eBl-5" value="b" style="rounded=0;whiteSpace=wrap;html=1;fontSize=18;fillColor=#F08E81;strokeColor=#FFFFFF;fontColor=#1A1A1A;" vertex="1" parent="hSr26EDlP_pbOgaP2dKB-1">
          <mxGeometry x="302" y="80" width="88" height="60" as="geometry" />
        </mxCell>
        <mxCell id="V-AF8M1-enauw4m46eBl-6" value="c" style="rounded=0;whiteSpace=wrap;html=1;fontSize=18;fillColor=#F08E81;strokeColor=#FFFFFF;fontColor=#1A1A1A;" vertex="1" parent="hSr26EDlP_pbOgaP2dKB-1">
          <mxGeometry x="390" y="80" width="88" height="60" as="geometry" />
        </mxCell>
        <mxCell id="V-AF8M1-enauw4m46eBl-7" value="d" style="rounded=0;whiteSpace=wrap;html=1;fontSize=18;fillColor=#F08E81;strokeColor=#FFFFFF;fontColor=#1A1A1A;" vertex="1" parent="hSr26EDlP_pbOgaP2dKB-1">
          <mxGeometry x="478" y="80" width="88" height="60" as="geometry" />
        </mxCell>
        <mxCell id="V-AF8M1-enauw4m46eBl-8" value="f" style="rounded=0;whiteSpace=wrap;html=1;fontSize=18;fillColor=#F08E81;strokeColor=#FFFFFF;fontColor=#1A1A1A;" vertex="1" parent="hSr26EDlP_pbOgaP2dKB-1">
          <mxGeometry x="566" y="80" width="88" height="60" as="geometry" />
        </mxCell>
        <mxCell id="V-AF8M1-enauw4m46eBl-9" value="&lt;font style=&quot;font-size: 18px&quot;&gt;top&lt;/font&gt;" style="ellipse;shape=cloud;whiteSpace=wrap;html=1;fillColor=#f5f5f5;strokeColor=#666666;fontColor=#333333;" vertex="1" parent="hSr26EDlP_pbOgaP2dKB-1">
          <mxGeometry x="638" y="-53.99999999999997" width="120" height="80" as="geometry" />
        </mxCell>
        <mxCell id="V-AF8M1-enauw4m46eBl-10" value="" style="edgeStyle=orthogonalEdgeStyle;rounded=0;orthogonalLoop=1;jettySize=auto;html=1;" edge="1" parent="hSr26EDlP_pbOgaP2dKB-1" source="V-AF8M1-enauw4m46eBl-11" target="V-AF8M1-enauw4m46eBl-9">
          <mxGeometry relative="1" as="geometry" />
        </mxCell>
        <mxCell id="V-AF8M1-enauw4m46eBl-11" value="Null" style="rounded=0;whiteSpace=wrap;html=1;fontSize=18;fillColor=#F08E81;strokeColor=#FFFFFF;fontColor=#1A1A1A;" vertex="1" parent="hSr26EDlP_pbOgaP2dKB-1">
          <mxGeometry x="654" y="80" width="88" height="60" as="geometry" />
        </mxCell>
        <mxCell id="V-AF8M1-enauw4m46eBl-12" value="a" style="rounded=0;whiteSpace=wrap;html=1;fontSize=18;fillColor=#F08E81;strokeColor=#FFFFFF;fontColor=#1A1A1A;" vertex="1" parent="hSr26EDlP_pbOgaP2dKB-1">
          <mxGeometry x="214" y="404" width="88" height="60" as="geometry" />
        </mxCell>
        <mxCell id="V-AF8M1-enauw4m46eBl-13" style="edgeStyle=orthogonalEdgeStyle;rounded=0;orthogonalLoop=1;jettySize=auto;html=1;exitX=0.5;exitY=1;exitDx=0;exitDy=0;fontSize=18;strokeColor=#182E3E;fontColor=#1A1A1A;labelBackgroundColor=#B0E3E6;" edge="1" parent="hSr26EDlP_pbOgaP2dKB-1" source="V-AF8M1-enauw4m46eBl-12" target="V-AF8M1-enauw4m46eBl-12">
          <mxGeometry relative="1" as="geometry" />
        </mxCell>
        <mxCell id="V-AF8M1-enauw4m46eBl-14" value="&lt;font style=&quot;font-size: 18px&quot;&gt;栈底&lt;/font&gt;" style="ellipse;shape=cloud;whiteSpace=wrap;html=1;fillColor=#f5f5f5;strokeColor=#666666;fontColor=#333333;" vertex="1" parent="hSr26EDlP_pbOgaP2dKB-1">
          <mxGeometry x="198" y="504" width="120" height="80" as="geometry" />
        </mxCell>
        <mxCell id="V-AF8M1-enauw4m46eBl-15" value="&lt;span style=&quot;font-size: 18px&quot;&gt;栈顶&lt;/span&gt;" style="ellipse;shape=cloud;whiteSpace=wrap;html=1;fillColor=#f5f5f5;strokeColor=#666666;fontColor=#333333;" vertex="1" parent="hSr26EDlP_pbOgaP2dKB-1">
          <mxGeometry x="638" y="504" width="120" height="80" as="geometry" />
        </mxCell>
        <mxCell id="V-AF8M1-enauw4m46eBl-16" value="&lt;span style=&quot;font-size: 18px&quot;&gt;入栈&lt;/span&gt;" style="ellipse;shape=cloud;whiteSpace=wrap;html=1;fillColor=#f5f5f5;strokeColor=#666666;fontColor=#333333;" vertex="1" parent="hSr26EDlP_pbOgaP2dKB-1">
          <mxGeometry x="50" y="394" width="120" height="80" as="geometry" />
        </mxCell>
        <mxCell id="V-AF8M1-enauw4m46eBl-17" value="b" style="rounded=0;whiteSpace=wrap;html=1;fontSize=18;fillColor=#F08E81;strokeColor=#FFFFFF;fontColor=#1A1A1A;" vertex="1" parent="hSr26EDlP_pbOgaP2dKB-1">
          <mxGeometry x="302" y="404" width="88" height="60" as="geometry" />
        </mxCell>
        <mxCell id="V-AF8M1-enauw4m46eBl-18" value="c" style="rounded=0;whiteSpace=wrap;html=1;fontSize=18;fillColor=#F08E81;strokeColor=#FFFFFF;fontColor=#1A1A1A;" vertex="1" parent="hSr26EDlP_pbOgaP2dKB-1">
          <mxGeometry x="390" y="404" width="88" height="60" as="geometry" />
        </mxCell>
        <mxCell id="V-AF8M1-enauw4m46eBl-19" value="d" style="rounded=0;whiteSpace=wrap;html=1;fontSize=18;fillColor=#F08E81;strokeColor=#FFFFFF;fontColor=#1A1A1A;" vertex="1" parent="hSr26EDlP_pbOgaP2dKB-1">
          <mxGeometry x="478" y="404" width="88" height="60" as="geometry" />
        </mxCell>
        <mxCell id="V-AF8M1-enauw4m46eBl-20" value="f" style="rounded=0;whiteSpace=wrap;html=1;fontSize=18;fillColor=#F08E81;strokeColor=#FFFFFF;fontColor=#1A1A1A;" vertex="1" parent="hSr26EDlP_pbOgaP2dKB-1">
          <mxGeometry x="566" y="404" width="88" height="60" as="geometry" />
        </mxCell>
        <mxCell id="V-AF8M1-enauw4m46eBl-21" value="&lt;font style=&quot;font-size: 18px&quot;&gt;top&lt;/font&gt;" style="ellipse;shape=cloud;whiteSpace=wrap;html=1;fillColor=#f5f5f5;strokeColor=#666666;fontColor=#333333;" vertex="1" parent="hSr26EDlP_pbOgaP2dKB-1">
          <mxGeometry x="726" y="270" width="120" height="80" as="geometry" />
        </mxCell>
        <mxCell id="V-AF8M1-enauw4m46eBl-22" value="" style="edgeStyle=orthogonalEdgeStyle;rounded=0;orthogonalLoop=1;jettySize=auto;html=1;" edge="1" parent="hSr26EDlP_pbOgaP2dKB-1" target="V-AF8M1-enauw4m46eBl-21">
          <mxGeometry relative="1" as="geometry">
            <mxPoint x="786" y="404" as="sourcePoint" />
          </mxGeometry>
        </mxCell>
        <mxCell id="V-AF8M1-enauw4m46eBl-23" value="g" style="rounded=0;whiteSpace=wrap;html=1;fontSize=18;fillColor=#F08E81;strokeColor=#FFFFFF;fontColor=#1A1A1A;" vertex="1" parent="hSr26EDlP_pbOgaP2dKB-1">
          <mxGeometry x="654" y="404" width="88" height="60" as="geometry" />
        </mxCell>
        <mxCell id="V-AF8M1-enauw4m46eBl-24" value="Null" style="rounded=0;whiteSpace=wrap;html=1;fontSize=18;fillColor=#F08E81;strokeColor=#FFFFFF;fontColor=#1A1A1A;" vertex="1" parent="hSr26EDlP_pbOgaP2dKB-1">
          <mxGeometry x="742" y="404" width="88" height="60" as="geometry" />
        </mxCell>
        <mxCell id="V-AF8M1-enauw4m46eBl-25" value="a" style="rounded=0;whiteSpace=wrap;html=1;fontSize=18;fillColor=#F08E81;strokeColor=#FFFFFF;fontColor=#1A1A1A;" vertex="1" parent="hSr26EDlP_pbOgaP2dKB-1">
          <mxGeometry x="214" y="734" width="88" height="60" as="geometry" />
        </mxCell>
        <mxCell id="V-AF8M1-enauw4m46eBl-26" style="edgeStyle=orthogonalEdgeStyle;rounded=0;orthogonalLoop=1;jettySize=auto;html=1;exitX=0.5;exitY=1;exitDx=0;exitDy=0;fontSize=18;strokeColor=#182E3E;fontColor=#1A1A1A;labelBackgroundColor=#B0E3E6;" edge="1" parent="hSr26EDlP_pbOgaP2dKB-1" source="V-AF8M1-enauw4m46eBl-25" target="V-AF8M1-enauw4m46eBl-25">
          <mxGeometry relative="1" as="geometry" />
        </mxCell>
        <mxCell id="V-AF8M1-enauw4m46eBl-27" value="&lt;font style=&quot;font-size: 18px&quot;&gt;栈底&lt;/font&gt;" style="ellipse;shape=cloud;whiteSpace=wrap;html=1;fillColor=#f5f5f5;strokeColor=#666666;fontColor=#333333;" vertex="1" parent="hSr26EDlP_pbOgaP2dKB-1">
          <mxGeometry x="198" y="834" width="120" height="80" as="geometry" />
        </mxCell>
        <mxCell id="V-AF8M1-enauw4m46eBl-28" value="&lt;span style=&quot;font-size: 18px&quot;&gt;栈顶&lt;/span&gt;" style="ellipse;shape=cloud;whiteSpace=wrap;html=1;fillColor=#f5f5f5;strokeColor=#666666;fontColor=#333333;" vertex="1" parent="hSr26EDlP_pbOgaP2dKB-1">
          <mxGeometry x="550" y="834" width="120" height="80" as="geometry" />
        </mxCell>
        <mxCell id="V-AF8M1-enauw4m46eBl-29" value="&lt;span style=&quot;font-size: 18px&quot;&gt;出栈&lt;/span&gt;" style="ellipse;shape=cloud;whiteSpace=wrap;html=1;fillColor=#f5f5f5;strokeColor=#666666;fontColor=#333333;" vertex="1" parent="hSr26EDlP_pbOgaP2dKB-1">
          <mxGeometry x="50" y="724" width="120" height="80" as="geometry" />
        </mxCell>
        <mxCell id="V-AF8M1-enauw4m46eBl-30" value="b" style="rounded=0;whiteSpace=wrap;html=1;fontSize=18;fillColor=#F08E81;strokeColor=#FFFFFF;fontColor=#1A1A1A;" vertex="1" parent="hSr26EDlP_pbOgaP2dKB-1">
          <mxGeometry x="302" y="734" width="88" height="60" as="geometry" />
        </mxCell>
        <mxCell id="V-AF8M1-enauw4m46eBl-31" value="c" style="rounded=0;whiteSpace=wrap;html=1;fontSize=18;fillColor=#F08E81;strokeColor=#FFFFFF;fontColor=#1A1A1A;" vertex="1" parent="hSr26EDlP_pbOgaP2dKB-1">
          <mxGeometry x="390" y="734" width="88" height="60" as="geometry" />
        </mxCell>
        <mxCell id="V-AF8M1-enauw4m46eBl-32" value="d" style="rounded=0;whiteSpace=wrap;html=1;fontSize=18;fillColor=#F08E81;strokeColor=#FFFFFF;fontColor=#1A1A1A;" vertex="1" parent="hSr26EDlP_pbOgaP2dKB-1">
          <mxGeometry x="478" y="734" width="88" height="60" as="geometry" />
        </mxCell>
        <mxCell id="V-AF8M1-enauw4m46eBl-33" value="f" style="rounded=0;whiteSpace=wrap;html=1;fontSize=18;fillColor=#F08E81;strokeColor=#FFFFFF;fontColor=#1A1A1A;" vertex="1" parent="hSr26EDlP_pbOgaP2dKB-1">
          <mxGeometry x="566" y="734" width="88" height="60" as="geometry" />
        </mxCell>
        <mxCell id="V-AF8M1-enauw4m46eBl-34" value="&lt;font style=&quot;font-size: 18px&quot;&gt;top&lt;/font&gt;" style="ellipse;shape=cloud;whiteSpace=wrap;html=1;fillColor=#f5f5f5;strokeColor=#666666;fontColor=#333333;" vertex="1" parent="hSr26EDlP_pbOgaP2dKB-1">
          <mxGeometry x="638" y="600" width="120" height="80" as="geometry" />
        </mxCell>
        <mxCell id="V-AF8M1-enauw4m46eBl-35" value="" style="edgeStyle=orthogonalEdgeStyle;rounded=0;orthogonalLoop=1;jettySize=auto;html=1;" edge="1" parent="hSr26EDlP_pbOgaP2dKB-1" target="V-AF8M1-enauw4m46eBl-34">
          <mxGeometry relative="1" as="geometry">
            <mxPoint x="698" y="734" as="sourcePoint" />
          </mxGeometry>
        </mxCell>
        <mxCell id="V-AF8M1-enauw4m46eBl-36" value="Null" style="rounded=0;whiteSpace=wrap;html=1;fontSize=18;fillColor=#F08E81;strokeColor=#FFFFFF;fontColor=#1A1A1A;" vertex="1" parent="hSr26EDlP_pbOgaP2dKB-1">
          <mxGeometry x="654" y="734" width="88" height="60" as="geometry" />
        </mxCell>
      </root>
    </mxGraphModel>
  </diagram>
</mxfile>
